# xmcd
#
# Track frame offsets:
# 150
# 10667
# 19952
# 39442
# 55520
# 69272
# 80777
# 96760
# 118445
# 131052
# 146105
# 158910
# 171710
# 192642
# 212457
# 231997
#
# Disc length: 3291 seconds
#
#
# Revision: 3
# Processed by: cddbd v1.5.1PL2 Copyright (c) Steve Scherf et al.
# Submitted via: FreeRIP 2.945 
#
DISCID=ea0cd910
DTITLE=Willie Nelson - 16 Biggest Hits
DYEAR=1998
DGENRE=Country
TTITLE0=Blue Eyes Crying In The Rain
TTITLE1=If You've Got The Money Honey, I've Got The Time
TTITLE2=Georgia On My Mind
TTITLE3=Blue Skies
TTITLE4=My Heros Have Always Been Cowboys
TTITLE5=On The Road Again
TTITLE6=Always On My Mind
TTITLE7=City Of New Orleans
TTITLE8=Forgiving You Was Easy
TTITLE9=Living In The Promiseland
TTITLE10=Midnight Rider
TTITLE11=Remember Me (When The Candle Lights Are Gleaming)
TTITLE12=Uncloudy Day
TTITLE13=Angel Flying Too Close To The Ground
TTITLE14=The Last Thing I Needed First Thing This Morning
TTITLE15=Nothing I Can Do About It Now
EXTD=Columbia Legacy
EXTT0=
EXTT1=
EXTT2=
EXTT3=
EXTT4=
EXTT5=
EXTT6=
EXTT7=
EXTT8=
EXTT9=
EXTT10=
EXTT11=
EXTT12=
EXTT13=
EXTT14=
EXTT15=
PLAYORDER=
